<svg width="28" height="55" fill="none" xmlns="http://www.w3.org/2000/svg"><path fill-rule="evenodd" clip-rule="evenodd" d="M18.597.097c-2.948.482-5.019 1.528-6.718 3.39-1.43 1.57-2.322 3.41-2.827 5.832-.191.914-.215 1.467-.255 5.776l-.043 4.766H.68v9.687l4.018.028 4.018.028.026 12.432.026 12.432h9.622V29.551h3.993c2.196 0 3.995-.012 3.997-.027.268-1.94 1.18-9.528 1.151-9.584-.023-.044-2.091-.08-4.597-.08h-4.557l.035-3.966c.034-3.88.04-3.98.276-4.597.48-1.249 1.489-1.986 2.995-2.19.414-.056 1.985-.103 3.491-.105L27.915 9l-.027-4.34-.027-4.338-1.33-.126c-2.182-.206-6.915-.265-7.934-.098z" fill="#0278E6"/></svg>