<svg width="31" height="32" fill="none" xmlns="http://www.w3.org/2000/svg"><path opacity=".3" d="M15.277.78a.167.167 0 01.314 0l3.524 9.773a.167.167 0 00.151.11l10.383.331c.156.005.22.203.097.299l-8.205 6.371a.167.167 0 00-.058.178l2.893 9.978a.167.167 0 01-.254.184l-8.595-5.834a.167.167 0 00-.187 0l-8.595 5.834a.167.167 0 01-.254-.184l2.893-9.977a.167.167 0 00-.058-.179l-8.205-6.371a.167.167 0 01.097-.299l10.383-.331a.167.167 0 00.152-.11L15.277.78z" fill="#FBD44A"/><path fill-rule="evenodd" clip-rule="evenodd" d="M17.657 6.446L15.609.767a.167.167 0 00-.314 0L11.77 10.54a.167.167 0 01-.152.11l-10.383.332a.167.167 0 00-.097.298l8.205 6.372a.167.167 0 01.058.178L6.51 27.808a.167.167 0 00.254.184l8.595-5.835a.167.167 0 01.188 0l2.11 1.433V6.446z" fill="#FBD44A"/></svg>