<svg width="63" height="40" fill="none" xmlns="http://www.w3.org/2000/svg"><path fill-rule="evenodd" clip-rule="evenodd" d="M19.347 23.777c-4.345-4.228-7.048-11.192-7.8-20.095L11.28.51H6.013C3.116.51.67.588.574.683c-.351.351.457 8.447 1.166 11.672 3.661 16.66 14.39 26.306 30.297 27.242l3.939.232V25.842l1.441.247c2.138.366 6.035 2.255 8.058 3.907 1.907 1.558 5.152 6.185 5.876 8.38l.442 1.337h11.182l-.25-1.249c-.357-1.79-2.22-5.632-3.995-8.235-1.968-2.89-5.368-6.23-8.598-8.449l-2.562-1.76 2.37-1.894c4.433-3.542 8.223-8.805 9.838-13.663.641-1.928 1.028-2.926.687-3.43-.399-.587-1.785-.504-4.911-.437l-5.02.107-1.059 2.51c-1.396 3.313-3.802 6.805-6.081 8.83-1.74 1.545-5.885 3.84-6.938 3.841-.368 0-.48-1.793-.48-7.686V.51H25.599v26.955l-.865-.258c-1.492-.445-3.882-1.967-5.387-3.431z" fill="#0278E6"/></svg>