<svg width="58" height="41" fill="none" xmlns="http://www.w3.org/2000/svg"><path fill-rule="evenodd" clip-rule="evenodd" d="M.552 8.085C1.284 4.575 4.178 1.69 7.712.95 8.637.756 9.666.747 29.352.77 48.98.792 50.057.803 50.695.995c3.464 1.039 5.771 3.34 6.74 6.718.194.679.206 1.393.206 12.52 0 11.079-.013 11.853-.206 12.672-.408 1.718-1.182 3.153-2.362 4.376-1.203 1.247-2.435 1.995-4.175 2.535l-.987.305H29.017c-19.877 0-21.379.06-22.597-.498-.225-.103-.44-.228-.761-.378-2.604-1.218-4.526-3.635-5.107-6.421-.2-.953-.212-1.674-.212-12.37C.34 9.76.353 9.04.552 8.086zm53.618.565c-.509-2.17-2.266-3.916-4.455-4.427-1.018-.237-40.457-.232-41.448.005-2.116.508-3.897 2.288-4.4 4.398-.247 1.036-.247 22.62 0 23.657.51 2.137 2.291 3.9 4.451 4.403.605.141 3.451.164 20.594.165 13.692.001 20.1-.035 20.557-.117 1.594-.285 3.372-1.593 4.096-3.01.128-.252.233-.433.319-.623.418-.927.388-2.055.423-12.387.034-9.955.017-11.408-.137-12.064zM22.168 31.738c-.054.02-.097-4.98-.097-11.283 0-6.226.043-11.304.095-11.283.199.077 17.265 11.23 17.266 11.283 0 .053-17.068 11.208-17.264 11.283z" fill="#0278E6"/></svg>