<svg width="48" height="50" fill="none" xmlns="http://www.w3.org/2000/svg"><mask id="a" fill="#fff"><path fill-rule="evenodd" clip-rule="evenodd" d="M21.894 26.462c-8.943-9.022-4.1-24.025 8.478-26.257 6.42-1.14 13.39 2.571 16.264 8.658 4.883 13.706-6.291 25.219-17.36 21.328h-.667c-.446.112-1.063.355-1.742.622-1.78.702-3.992 1.573-4.69.697-.661-.832-.498-1.632.622-3.04.185-.232.31-.365.325-.51.028-.256-.29-.55-1.23-1.498zm6.945 2.294h-.01l.002-.001c.003 0 .006 0 .008.002zm-.008-.001c-.347-.063-.797.031-1.237.358-1.165.866-2.431 1.355-3.507 1.355-.27 0-.424.01-.458-.05-.045-.078.115-.272.484-.756 1.401-1.836 1.462-2.39.354-3.212C14.027 18.71 19.75 1.833 32.8 1.877c16.606.057 18.359 24.594 1.942 27.181-1.53.241-3.365-.03-4.583-.21-.734-.108-1.243-.183-1.327-.093zm.808-20.352c-.601-.604.308-2.846 1.364-3.363 1.569-.768 3.686-.082 4.308 1.396.27.645.284.658.985.996.391.188.995.54 1.34.783l.63.442.633-.11c2.41-.422 4.332 2.716 2.864 4.676l-.446.595v3.201l.394.513c1.545 2.01-.371 5.22-2.836 4.753l-.623-.118-.518.392c-.285.215-.885.57-1.334.787l-.816.395-.274.652c-.984 2.341-4.657 2.292-5.517-.074-.204-.562-.221-.58-.907-.9-.384-.179-.994-.53-1.356-.78l-.657-.454-.662.11c-2.395.396-4.3-2.817-2.795-4.718l.4-.507.005-1.656.005-1.656-.37-.43c-2.022-2.35 1.314-5.988 4.113-4.484 1.197.643.344 1.77-1.143 1.51-.524-.093-.775-.138-.961-.049-.174.084-.292.285-.524.676-.235.398-.361.589-.353.774.01.204.182.401.552.862.575.718.591.753.534 1.184-.16 1.195-.176 1.918-.062 2.718.142.99.141.99-.577 1.832-.285.334-.431.5-.45.679-.02.19.104.394.358.83.234.404.349.608.52.689.18.084.423.034.934-.064.912-.173 1.072-.145 1.545.269.56.49 1.407 1 2.058 1.237.799.293.986.473 1.245 1.2.194.546.284.806.466.93.169.114.417.111.901.111h.877l.172-.414c.094-.228.257-.632.36-.899.063-.16.105-.27.17-.362.148-.207.418-.328 1.326-.74.454-.207 1.078-.583 1.387-.835.778-.637.884-.665 1.87-.492.493.086.734.13.915.045.178-.083.298-.292.541-.709.438-.748.43-.813-.192-1.574-.628-.77-.672-.886-.545-1.438.053-.234.097-.864.097-1.4 0-.536-.044-1.166-.098-1.4-.126-.552-.082-.668.546-1.438.624-.764.631-.823.18-1.584-.247-.415-.365-.621-.54-.702-.179-.081-.418-.032-.915.061-.977.184-1.036.168-1.828-.479a7.511 7.511 0 00-1.29-.79l-1.096-.52c-.257-.125-.382-.28-.527-.65a56.499 56.499 0 00-.361-.902l-.172-.414h-.867c-.499 0-.743-.004-.907.109-.165.114-.248.347-.426.824-.422 1.129-1.06 1.466-1.65.874zm-1.48 9.418c-1.615-3.054.16-6.84 3.475-7.417 2.958-.515 5.833 1.79 5.866 4.701.018 1.558-1.558 1.564-1.72.007-.242-2.316-2.624-3.693-4.655-2.69-2.983 1.474-2.158 5.879 1.165 6.221.73.076 1.092.36 1.092.863 0 1.877-4.027.578-5.224-1.685zm-26.574.78c1.282-2.464 3.062-4.36 4.564-4.858 1.673-.556 3.811.4 6.342 2.839 3.783 3.645 4.489 6.84 1.93 8.744-2.927 2.177-2.532 6.151.95 9.56 2.736 2.678 5.94 3.325 8.218 1.66.726-.531.876-.523 1.88.111 2.57 1.621 5.99 4.757 6.13 5.62.186 1.145-.904 1.264-1.919.21-1.719-1.785-3.057-2.957-4.438-3.887-.423-.285-.61-.412-.793-.407-.147.005-.292.095-.556.257-4.533 2.785-12.273-2.264-13.133-8.567-.308-2.261.745-4.68 2.592-5.956 1.423-.983 1.028-2.631-1.26-5.258-2.589-2.971-5.013-4-6.356-2.695-.182.177-.283.268-.28.356.003.108.162.21.52.456 2.244 1.54 5.118 4.303 5.236 5.034.184 1.137-.907 1.256-1.92.21-2.077-2.145-4.568-4.229-5.055-4.229-.196 0-.927 1.164-1.405 2.237-6.004 13.479 14.388 33.45 27.46 26.891 2.23-1.118 4.067-2.869 4.214-4.013.186-1.45-2.202-4.49-5.01-6.38-.895-.601-1.008-.732-1.008-1.17 0-3.037 7.332 3.489 7.757 6.905.245 1.963-1.313 4.011-4.454 5.855-14.64 8.599-38.108-14.34-30.206-29.525z"/></mask><path fill-rule="evenodd" clip-rule="evenodd" d="M21.894 26.462c-8.943-9.022-4.1-24.025 8.478-26.257 6.42-1.14 13.39 2.571 16.264 8.658 4.883 13.706-6.291 25.219-17.36 21.328h-.667c-.446.112-1.063.355-1.742.622-1.78.702-3.992 1.573-4.69.697-.661-.832-.498-1.632.622-3.04.185-.232.31-.365.325-.51.028-.256-.29-.55-1.23-1.498zm6.945 2.294h-.01l.002-.001c.003 0 .006 0 .008.002zm-.008-.001c-.347-.063-.797.031-1.237.358-1.165.866-2.431 1.355-3.507 1.355-.27 0-.424.01-.458-.05-.045-.078.115-.272.484-.756 1.401-1.836 1.462-2.39.354-3.212C14.027 18.71 19.75 1.833 32.8 1.877c16.606.057 18.359 24.594 1.942 27.181-1.53.241-3.365-.03-4.583-.21-.734-.108-1.243-.183-1.327-.093zm.808-20.352c-.601-.604.308-2.846 1.364-3.363 1.569-.768 3.686-.082 4.308 1.396.27.645.284.658.985.996.391.188.995.54 1.34.783l.63.442.633-.11c2.41-.422 4.332 2.716 2.864 4.676l-.446.595v3.201l.394.513c1.545 2.01-.371 5.22-2.836 4.753l-.623-.118-.518.392c-.285.215-.885.57-1.334.787l-.816.395-.274.652c-.984 2.341-4.657 2.292-5.517-.074-.204-.562-.221-.58-.907-.9-.384-.179-.994-.53-1.356-.78l-.657-.454-.662.11c-2.395.396-4.3-2.817-2.795-4.718l.4-.507.005-1.656.005-1.656-.37-.43c-2.022-2.35 1.314-5.988 4.113-4.484 1.197.643.344 1.77-1.143 1.51-.524-.093-.775-.138-.961-.049-.174.084-.292.285-.524.676-.235.398-.361.589-.353.774.01.204.182.401.552.862.575.718.591.753.534 1.184-.16 1.195-.176 1.918-.062 2.718.142.99.141.99-.577 1.832-.285.334-.431.5-.45.679-.02.19.104.394.358.83.234.404.349.608.52.689.18.084.423.034.934-.064.912-.173 1.072-.145 1.545.269.56.49 1.407 1 2.058 1.237.799.293.986.473 1.245 1.2.194.546.284.806.466.93.169.114.417.111.901.111h.877l.172-.414c.094-.228.257-.632.36-.899.063-.16.105-.27.17-.362.148-.207.418-.328 1.326-.74.454-.207 1.078-.583 1.387-.835.778-.637.884-.665 1.87-.492.493.086.734.13.915.045.178-.083.298-.292.541-.709.438-.748.43-.813-.192-1.574-.628-.77-.672-.886-.545-1.438.053-.234.097-.864.097-1.4 0-.536-.044-1.166-.098-1.4-.126-.552-.082-.668.546-1.438.624-.764.631-.823.18-1.584-.247-.415-.365-.621-.54-.702-.179-.081-.418-.032-.915.061-.977.184-1.036.168-1.828-.479a7.511 7.511 0 00-1.29-.79l-1.096-.52c-.257-.125-.382-.28-.527-.65a56.499 56.499 0 00-.361-.902l-.172-.414h-.867c-.499 0-.743-.004-.907.109-.165.114-.248.347-.426.824-.422 1.129-1.06 1.466-1.65.874zm-1.48 9.418c-1.615-3.054.16-6.84 3.475-7.417 2.958-.515 5.833 1.79 5.866 4.701.018 1.558-1.558 1.564-1.72.007-.242-2.316-2.624-3.693-4.655-2.69-2.983 1.474-2.158 5.879 1.165 6.221.73.076 1.092.36 1.092.863 0 1.877-4.027.578-5.224-1.685zm-26.574.78c1.282-2.464 3.062-4.36 4.564-4.858 1.673-.556 3.811.4 6.342 2.839 3.783 3.645 4.489 6.84 1.93 8.744-2.927 2.177-2.532 6.151.95 9.56 2.736 2.678 5.94 3.325 8.218 1.66.726-.531.876-.523 1.88.111 2.57 1.621 5.99 4.757 6.13 5.62.186 1.145-.904 1.264-1.919.21-1.719-1.785-3.057-2.957-4.438-3.887-.423-.285-.61-.412-.793-.407-.147.005-.292.095-.556.257-4.533 2.785-12.273-2.264-13.133-8.567-.308-2.261.745-4.68 2.592-5.956 1.423-.983 1.028-2.631-1.26-5.258-2.589-2.971-5.013-4-6.356-2.695-.182.177-.283.268-.28.356.003.108.162.21.52.456 2.244 1.54 5.118 4.303 5.236 5.034.184 1.137-.907 1.256-1.92.21-2.077-2.145-4.568-4.229-5.055-4.229-.196 0-.927 1.164-1.405 2.237-6.004 13.479 14.388 33.45 27.46 26.891 2.23-1.118 4.067-2.869 4.214-4.013.186-1.45-2.202-4.49-5.01-6.38-.895-.601-1.008-.732-1.008-1.17 0-3.037 7.332 3.489 7.757 6.905.245 1.963-1.313 4.011-4.454 5.855-14.64 8.599-38.108-14.34-30.206-29.525z" fill="#0278E6"/><path d="M30.372.205l-.035-.197.035.197zm-8.478 26.257l.143-.14-.143.14zM46.636 8.863l.188-.067-.003-.01-.005-.008-.18.085zm-17.36 21.328l.067-.189-.032-.011h-.034v.2zm-.667 0v-.2h-.025l-.024.006.049.194zm-1.742.622l.073.186-.073-.186zm-4.69.697l.157-.125-.156.125zm.622-3.04l.156.125-.156-.124zm.325-.51l.2.022-.2-.022zm5.706.796l-.147-.136-.311.336h.458v-.2zm.01 0v.2l.037-.396-.038.197zm-1.246.357l.12.161-.12-.16zm-3.965 1.305l-.174.099.174-.1zm.484-.756l.159.121-.159-.121zm.354-3.212l.12-.16-.12.16zM32.8 1.877v-.2.2zm1.942 27.181l.03.198-.03-.198zm-4.583-.21l.03-.197-.03.198zm.845-23.808l-.088-.18.088.18zM29.64 8.403l.142-.141-.142.14zm5.672-1.967l.184-.077-.184.077zm.985.996l-.086.18.086-.18zm1.34.783l-.114.164.115-.164zm.63.442l-.115.164.068.047.081-.014-.034-.197zm.633-.11l-.035-.198.035.197zm2.864 4.676l.16.12-.16-.12zm-.446.595l-.16-.12-.04.054v.066h.2zm0 3.201h-.2v.068l.041.054.159-.122zm.394.513l-.158.122.158-.122zm-2.836 4.753l.037-.197-.037.197zm-.623-.118l.038-.197-.087-.016-.071.053.12.16zm-.518.392l.121.16-.12-.16zm-1.334.787l-.087-.18.087.18zm-.816.395l-.087-.18-.068.033-.03.07.185.077zm-.274.652l-.184-.077.184.077zm-5.517-.074l.188-.069-.188.069zm-.907-.9l.085-.18-.085.18zm-1.356-.78l.114-.165-.114.165zm-.657-.454l.114-.165-.067-.046-.08.013.033.198zm-.662.11l.033.197-.033-.198zm-2.795-4.718l-.157-.124.157.124zm.4-.507l.157.125.043-.055v-.069h-.2zm.005-1.656h-.2.2zm.005-1.656h.2v-.074l-.048-.057-.152.13zm-.37-.43l-.151.13.151-.13zm4.113-4.484l.095-.176-.095.176zm-1.143 1.51l-.034.196.034-.197zm-.961-.049l-.087-.18.087.18zm-.524.676l.172.102-.172-.102zm-.353.774l.2-.01-.2.01zm.552.862l-.156.125.156-.125zm.534 1.184l-.199-.027.198.027zm-.062 2.718l-.198.028.198-.028zm-.577 1.832l.152.13-.152-.13zm-.45.679l-.199-.02.199.02zm.358.83l-.173.101.173-.1zm.52.689l-.085.18.085-.18zm.934-.064l-.038-.196.038.196zm1.545.269l.132-.15-.132.15zM30 21.99l-.069.188.069-.188zm1.245 1.2l-.188.068.188-.067zm.466.93l.113-.166-.113.165zm1.778.111v.2h.134l.051-.123-.185-.077zm.172-.414l.185.076-.185-.076zm.36-.899l.187.073-.186-.073zm.17-.362l-.162-.116.162.116zm1.326-.74l-.083-.183.083.182zm1.387-.835l-.127-.155.127.155zm1.87-.492l.034-.197-.034.197zm.915.045l-.085-.18.085.18zm.541-.709l-.172-.1.172.1zm-.192-1.574l-.154.126.154-.126zm-.545-1.438l.194.044-.194-.044zm0-2.8l.194-.044-.194.044zm.545-1.438l.155.127-.155-.127zm.18-1.584l-.172.103.172-.103zm-.54-.702l.083-.181-.083.181zm-.915.061l.037.197-.037-.197zm-1.828-.479l.126-.155-.126.155zm-1.29-.79l.086-.181-.085.18zm-1.096-.52l-.087.18.087-.18zm-.527-.65l-.186.072.186-.073zm-.361-.902l.185-.076-.185.076zm-.172-.414l.185-.077-.05-.123h-.135v.2zm-1.774.109l.113.165-.113-.165zm-.426.824l.187.07-.187-.07zm.345 2.875l.034.197-.034-.197zm-3.476 7.417l.177-.094-.177.094zm9.342-2.716l-.2.003.2-.003zm-1.72.007l.198-.02-.199.02zm-4.655-2.69l-.089-.179.089.18zm1.165 6.221l-.02.2.02-.2zm-26.141-4.9l.063.19-.063-.19zM1.585 18.6l.177.093-.177-.093zm10.905-2.02l-.138.145.139-.144zm1.93 8.745l-.12-.16.12.16zm.95 9.56l-.14.143.14-.143zm8.22 1.66l-.119-.162.118.161zm1.879.111l.107-.17-.107.17zm6.13 5.62l-.197.032.197-.032zm-1.919.21l-.144.14.144-.14zM25.242 38.6l.112-.166-.112.166zm-.793-.407l-.006-.2.006.2zm-.556.257l.104.17-.104-.17zM10.76 29.883l-.198.027.198-.027zm2.592-5.956l-.113-.165.113.165zm-1.26-5.258l.15-.131-.15.131zm-6.356-2.695l.14.143-.14-.143zm-.28.356l-.2.007.2-.007zm.52.456l-.112.165.113-.165zm5.236 5.034l-.197.032.197-.032zm-1.92.21l-.143.14.143-.14zm-6.46-1.992l.183.081-.183-.081zm27.46 26.891l-.09-.178.09.178zm4.214-4.013l-.198-.026.198.026zm-5.01-6.38l.11-.165-.11.166zm6.75 5.735l.198-.025-.199.025zm-4.455 5.855l.102.173-.102-.173zM30.337.008c-12.733 2.26-17.644 17.456-8.585 26.595l.285-.282c-8.829-8.905-4.052-23.715 8.37-25.92l-.07-.393zm16.48 8.77c-2.91-6.165-9.967-9.926-16.48-8.77l.07.394C36.734-.721 43.618 2.94 46.455 8.949l.361-.171zM29.21 30.38c5.62 1.975 11.264.037 14.879-4.123 3.615-4.161 5.2-10.542 2.735-17.46l-.377.133c2.418 6.787.858 13.016-2.66 17.065-3.52 4.05-8.996 5.923-14.444 4.007l-.133.378zm.067-.39h-.668v.4h.668v-.4zM26.94 31c.685-.27 1.287-.507 1.717-.615l-.097-.388c-.462.116-1.092.365-1.766.63l.146.372zm-4.919.635c.22.276.55.4.915.433.363.034.784-.02 1.224-.12.88-.2 1.894-.6 2.78-.949l-.146-.372c-.895.352-1.878.739-2.722.931-.423.096-.797.14-1.1.112-.301-.028-.51-.123-.638-.285l-.313.25zm.621-3.289c-.563.708-.91 1.291-1.018 1.82-.112.549.037 1.016.397 1.469l.313-.25c-.301-.379-.402-.728-.318-1.139.088-.431.383-.952.94-1.65l-.314-.25zm.284-.407c-.003.022-.014.057-.065.129-.051.074-.12.154-.219.278l.313.25c.087-.11.173-.212.234-.299a.68.68 0 00.134-.315l-.397-.043zm-1.174-1.336c.475.478.781.781.969.998.197.228.208.305.205.338l.397.043c.024-.224-.11-.422-.3-.642-.199-.23-.52-.549-.986-1.019l-.285.282zm7.078 2.353h.01v-.4h-.01v.4zm-.145-.337h-.001v.001l.293.272v-.001l-.292-.272zm.192-.06a.322.322 0 00-.01 0l-.071.393.006.001.075-.393zm-.01 0c-.41-.075-.916.04-1.392.394l.238.321c.404-.3.799-.374 1.083-.322l.07-.394zm-1.392.394c-1.143.848-2.368 1.315-3.388 1.315v.4c1.131 0 2.439-.512 3.626-1.394l-.238-.321zm-3.388 1.315c-.143 0-.237.002-.304-.002a.431.431 0 01-.035-.004l-.01-.002s.01.003.022.012c.013.009.03.024.042.046l-.347.199c.044.076.114.11.16.124.047.015.097.02.14.024.086.005.205.003.332.003v-.4zm-.285.05c.036.063.01.112.018.09a.651.651 0 01.061-.104c.077-.112.203-.275.391-.52l-.318-.243c-.181.237-.32.414-.404.539a.984.984 0 00-.102.181.292.292 0 00.007.256l.347-.199zm.47-.535c.352-.46.625-.848.817-1.183.191-.333.31-.628.34-.903.065-.584-.279-.99-.843-1.407l-.238.32c.544.404.724.687.684 1.044-.021.195-.11.434-.29.747-.179.312-.44.682-.788 1.14l.318.242zm.314-3.493c-10.28-7.623-4.65-24.257 8.212-24.213l.002-.4c-13.238-.045-19.052 17.075-8.452 24.934l.238-.321zm8.212-24.213c8.179.028 12.7 6.075 13.156 12.456.456 6.382-3.158 13.054-11.245 14.328l.063.395c8.33-1.313 12.049-8.204 11.581-14.751C45.885 7.957 41.227 1.706 32.8 1.677l-.002.4zm1.911 26.784c-1.493.235-3.297-.03-4.522-.21l-.058.396c1.211.178 3.078.455 4.643.209l-.063-.395zm-4.522-.21a20.6 20.6 0 00-.918-.123 2.223 2.223 0 00-.31-.011.632.632 0 00-.13.019.304.304 0 00-.144.083l.293.272c-.027.029-.052.033-.044.03a.25.25 0 01.047-.005c.057-.003.14 0 .251.01.223.021.528.066.897.12l.058-.395zm.728-23.79c-.302.147-.58.41-.814.716a4.527 4.527 0 00-.587 1.037 3.466 3.466 0 00-.264 1.07c-.018.323.037.648.248.86l.283-.282c-.09-.09-.147-.272-.131-.555.015-.276.098-.607.235-.943.136-.335.321-.667.533-.944.214-.279.447-.49.673-.6l-.176-.36zm4.58 1.498c-.338-.805-1.076-1.38-1.921-1.653-.846-.275-1.822-.255-2.66.154l.177.36c.732-.359 1.6-.38 2.36-.134.76.247 1.392.754 1.675 1.428l.369-.155zm.888.893c-.364-.175-.504-.248-.599-.343-.092-.093-.148-.215-.29-.55l-.368.155c.13.31.216.516.374.676.155.156.372.26.71.422l.173-.36zm1.369.8c-.356-.25-.968-.608-1.369-.8l-.173.36c.381.184.975.53 1.312.767l.23-.327zm.629.441l-.63-.441-.23.327.63.442.23-.328zm.483-.144l-.632.11.069.395.632-.11-.069-.395zm3.06 4.994c.795-1.062.661-2.428.032-3.456-.63-1.027-1.786-1.766-3.092-1.538l.069.394c1.104-.193 2.114.427 2.682 1.353.567.926.66 2.109-.012 3.007l.32.24zm-.447.595l.446-.595-.32-.24-.446.595.32.24zm.04 1.48v-1.6h-.4v1.6h.4zm0 1.601v-1.6h-.4v1.6h.4zm.353.391l-.394-.513-.318.244.395.513.317-.244zm-3.032 5.071c1.334.253 2.505-.493 3.13-1.542.626-1.048.735-2.444-.098-3.529l-.317.244c.71.925.634 2.138.072 3.08-.563.943-1.583 1.568-2.713 1.354l-.075.393zm-.623-.118l.622.118.075-.393-.622-.118-.075.393zm-.36.355l.518-.392-.241-.319-.518.392.241.32zm-1.368.808c.457-.221 1.07-.582 1.368-.808l-.241-.319c-.271.205-.86.553-1.3.767l.173.36zm-.816.395l.816-.395-.174-.36-.816.395.174.36zm-.177.55l.275-.652-.37-.156-.273.653.368.155zm-5.889-.084c.465 1.278 1.685 1.918 2.897 1.934 1.212.017 2.462-.589 2.992-1.85l-.368-.155c-.454 1.08-1.533 1.62-2.618 1.605-1.086-.014-2.132-.583-2.527-1.67l-.376.136zm-.803-.786c.356.166.493.236.578.32.077.076.119.173.225.466l.376-.137c-.098-.268-.166-.461-.32-.613-.146-.145-.361-.245-.69-.399l-.17.363zm-1.386-.798c.37.256.99.613 1.386.798l.169-.363c-.374-.174-.974-.52-1.327-.764l-.228.33zm-.657-.454l.657.454.228-.329-.657-.454-.228.33zm-.515.143l.662-.11-.066-.395-.661.11.065.395zm-2.985-5.04c-.818 1.034-.697 2.407-.08 3.447.617 1.041 1.763 1.808 3.065 1.593l-.065-.395c-1.095.181-2.098-.46-2.656-1.401-.558-.942-.637-2.127.05-2.995l-.314-.248zm.4-.506l-.4.507.314.248.4-.506-.313-.249zm-.038-1.533l-.005 1.657.4.001.005-1.656-.4-.002zm.006-1.656l-.006 1.656.4.002.005-1.657-.4-.001zm-.322-.299l.37.43.303-.26-.37-.43-.303.26zm4.359-4.79c-1.501-.807-3.132-.226-4.107.837-.975 1.064-1.35 2.677-.252 3.953l.303-.26c-.924-1.075-.643-2.456.244-3.422.887-.967 2.324-1.453 3.622-.756l.19-.352zm-1.272 1.882c.787.138 1.461-.082 1.771-.492.16-.21.22-.472.13-.735-.086-.256-.303-.48-.63-.655l-.189.352c.272.146.398.304.441.432a.38.38 0 01-.07.364c-.189.25-.685.463-1.384.34l-.07.394zm-.841-.065c.047-.022.115-.035.252-.025.14.011.322.043.589.09l.069-.394c-.258-.045-.463-.082-.627-.094a.87.87 0 00-.456.063l.173.36zm-.438.598c.119-.2.2-.337.273-.437a.468.468 0 01.165-.16l-.173-.361a.854.854 0 00-.315.285c-.087.12-.18.277-.294.47l.344.203zm-.325.663c-.002-.042.01-.1.064-.21.056-.111.14-.248.261-.453l-.344-.204c-.114.194-.21.35-.275.48a.823.823 0 00-.105.405l.4-.018zm.508.746c-.19-.236-.317-.391-.402-.515-.084-.123-.104-.186-.106-.231l-.4.018c.008.159.079.297.176.439.096.14.239.314.42.54l.312-.251zm.576 1.335c.028-.215.049-.383-.046-.593-.082-.18-.25-.393-.53-.742l-.312.25c.296.37.422.534.478.657.043.095.042.16.013.375l.397.053zm-.062 2.664c-.11-.776-.096-1.479.062-2.664l-.397-.053c-.16 1.206-.178 1.948-.06 2.773l.395-.056zm-.623 1.99c.178-.209.318-.373.422-.514a1.42 1.42 0 00.228-.417c.089-.282.041-.584-.027-1.06l-.396.057c.074.514.097.707.041.883a1.031 1.031 0 01-.168.3 9.903 9.903 0 01-.404.491l.304.26zm-.403.57c.004-.04.023-.093.09-.187.067-.096.167-.212.313-.383l-.304-.26c-.14.164-.255.297-.336.412a.795.795 0 00-.161.376l.398.042zm.332.71c-.13-.223-.218-.373-.273-.492-.055-.117-.064-.177-.06-.218l-.397-.042a.807.807 0 00.094.428c.065.14.165.31.29.524l.346-.2zm.433.607a.463.463 0 01-.16-.158c-.072-.102-.154-.244-.273-.45l-.346.201c.115.198.208.36.294.48a.825.825 0 00.314.289l.17-.363zm.81-.079c-.26.05-.437.084-.572.097-.133.013-.197.001-.238-.018l-.17.362c.137.064.286.07.446.054.159-.015.359-.054.609-.102l-.075-.393zm1.715.314c-.24-.21-.434-.354-.706-.4-.255-.045-.56 0-1.009.086l.075.393c.464-.088.695-.115.866-.086.155.027.277.104.51.308l.264-.3zm1.995 1.2c-.627-.229-1.453-.725-1.995-1.2l-.263.301c.576.505 1.445 1.028 2.12 1.275l.138-.375zm1.364 1.322c-.13-.369-.255-.634-.47-.84-.211-.205-.494-.335-.894-.481l-.138.375c.398.146.609.253.755.394.144.138.243.327.37.686l.377-.134zm.39.83c-.047-.032-.096-.09-.159-.226a7.507 7.507 0 01-.23-.604l-.377.134c.095.268.17.48.245.64.075.161.162.295.297.387l.224-.331zm.79.077c-.247 0-.419 0-.55-.012a.497.497 0 01-.24-.065l-.224.33a.882.882 0 00.426.133c.155.015.35.014.587.014v-.4zm.876 0h-.877v.4h.877v-.4zm-.013-.29l-.171.413.37.154.17-.415-.369-.153zm.36-.896c-.104.266-.266.669-.36.895l.37.153c.095-.229.258-.634.362-.902l-.372-.146zm.193-.405c-.084.117-.134.254-.194.405l.373.146c.066-.17.098-.251.146-.319l-.325-.232zm1.405-.807c-.45.205-.752.342-.96.454-.21.113-.345.212-.445.353l.325.232c.048-.067.12-.13.31-.233.192-.104.479-.233.936-.442l-.166-.364zm1.343-.807c-.292.24-.9.606-1.343.807l.166.364c.466-.212 1.106-.596 1.43-.862l-.253-.31zm2.031-.534c-.482-.085-.8-.132-1.098-.054-.297.078-.552.276-.933.588l.253.31c.398-.326.585-.46.782-.511.197-.052.424-.027.927.06l.07-.393zm.796.061c-.044.021-.11.033-.24.023a6.42 6.42 0 01-.556-.084l-.069.394c.242.042.437.077.594.09a.856.856 0 00.441-.06l-.17-.363zm.454-.628c-.124.212-.21.358-.285.463-.074.103-.124.145-.169.165l.17.363a.852.852 0 00.324-.294c.09-.125.186-.291.305-.496l-.345-.201zm-.175-1.348c.157.192.267.33.341.445a.596.596 0 01.109.245.443.443 0 01-.045.227c-.045.109-.12.241-.23.43l.345.202c.108-.185.197-.341.254-.479a.833.833 0 00.073-.428.98.98 0 00-.17-.415 6.031 6.031 0 00-.367-.48l-.31.253zm-.585-1.61c-.065.281-.1.5-.003.754.088.231.28.48.588.856l.31-.253c-.32-.393-.464-.587-.524-.745-.051-.134-.044-.25.019-.521l-.39-.09zm.092-1.354c0 .535-.044 1.145-.092 1.355l.39.09c.059-.258.102-.908.102-1.445h-.4zm-.092-1.355c.048.21.092.82.092 1.355h.4c0-.537-.043-1.187-.102-1.444l-.39.089zm.585-1.61c-.307.377-.5.626-.588.857-.096.254-.062.473.003.753l.39-.09c-.063-.271-.07-.387-.019-.521.06-.158.203-.352.524-.745l-.31-.253zm.163-1.354a4.3 4.3 0 01.238.437.445.445 0 01.049.228.58.58 0 01-.108.244 5.729 5.729 0 01-.342.446l.31.253c.155-.19.28-.345.368-.48a.964.964 0 00.169-.418.836.836 0 00-.078-.43 4.443 4.443 0 00-.262-.485l-.344.205zm-.451-.623a.47.47 0 01.164.161c.076.104.16.25.287.462l.344-.205c-.121-.203-.218-.368-.307-.491a.834.834 0 00-.322-.29l-.166.363zm-.795.076c.254-.048.426-.081.559-.094.13-.012.193-.001.236.018l.166-.363a.84.84 0 00-.44-.053c-.156.015-.351.053-.595.099l.074.393zm-1.992-.521c.384.314.633.515.92.59.29.075.598.02 1.072-.07l-.074-.392c-.503.094-.712.123-.896.075-.185-.049-.361-.18-.769-.513l-.253.31zm-1.248-.764c.407.19.972.538 1.248.764l.253-.31c-.306-.25-.9-.614-1.33-.816l-.17.362zm-1.098-.522c.186.09.68.325 1.098.522l.17-.362c-.417-.197-.91-.43-1.094-.52l-.174.36zm-.626-.757c.075.193.151.347.252.47.104.13.226.216.374.287l.174-.36a.644.644 0 01-.237-.178 1.354 1.354 0 01-.19-.364l-.373.145zm-.36-.897c.094.226.256.63.36.897l.373-.145c-.105-.27-.268-.676-.363-.905l-.37.152zm-.171-.415l.171.415.37-.154-.172-.414-.37.153zm-.683.124h.867v-.4h-.867v.4zm-.794.074c.04-.028.103-.05.233-.063.133-.012.307-.011.561-.011v-.4c-.244 0-.442-.001-.597.013a.857.857 0 00-.424.131l.227.33zm-.352.73c.09-.244.152-.41.21-.532.058-.12.102-.17.142-.198l-.227-.33a.859.859 0 00-.275.354c-.068.143-.137.332-.225.565l.375.14zm-1.978.944c.166.167.348.281.544.326.2.045.397.015.579-.082.352-.186.639-.61.855-1.189l-.375-.14c-.205.55-.447.86-.668.976a.423.423 0 01-.302.045.745.745 0 01-.35-.218l-.283.282zm2.102 1.663c-3.457.602-5.292 4.541-3.619 7.707l.354-.187c-1.554-2.94.16-6.574 3.333-7.126l-.068-.394zm6.1 4.896c-.034-3.042-3.029-5.43-6.1-4.896l.068.394c2.844-.495 5.6 1.726 5.632 4.507l.4-.005zm-2.12.03c.088.835.573 1.346 1.128 1.344.569-.002 1.002-.536.992-1.374l-.4.005c.008.72-.338.968-.594.969-.269.001-.652-.264-.728-.986l-.397.042zm-4.367-2.531c1.898-.938 4.14.344 4.368 2.53l.397-.04c-.254-2.446-2.778-3.918-4.942-2.849l.177.359zm1.097 5.843c-3.13-.323-3.893-4.461-1.097-5.843l-.177-.359c-3.168 1.566-2.282 6.237 1.233 6.6l.041-.398zm1.271 1.061a.912.912 0 00-.347-.748c-.224-.177-.54-.274-.924-.313l-.04.397c.347.036.577.12.716.23a.513.513 0 01.196.434h.4zm-5.6-1.592c.63 1.19 1.986 2.108 3.176 2.492.594.192 1.179.261 1.629.14.228-.061.43-.175.576-.355.146-.181.22-.413.22-.684h-.4a.667.667 0 01-.132.433.684.684 0 01-.368.22c-.343.092-.84.047-1.402-.134-1.122-.363-2.378-1.226-2.945-2.299l-.354.187zM6.087 13.553c-.795.264-1.643.889-2.447 1.745-.807.859-1.583 1.964-2.232 3.21l.355.186c.634-1.219 1.39-2.293 2.168-3.122.782-.832 1.576-1.405 2.282-1.64l-.126-.38zm6.543 2.884c-1.274-1.227-2.46-2.093-3.55-2.58-1.09-.488-2.096-.603-2.993-.304l.126.38c.775-.258 1.675-.172 2.704.289 1.031.462 2.18 1.293 3.436 2.504l.277-.288zm1.91 9.05c.666-.496 1.128-1.082 1.379-1.748.25-.666.283-1.398.111-2.176-.341-1.548-1.496-3.292-3.4-5.125l-.277.288c1.88 1.811 2.97 3.488 3.287 4.924.157.714.123 1.366-.096 1.948-.219.583-.628 1.11-1.242 1.567l.239.321zm.972 9.256c-1.718-1.682-2.657-3.487-2.82-5.119-.16-1.623.443-3.092 1.849-4.138l-.24-.32c-1.52 1.13-2.182 2.737-2.007 4.498.175 1.751 1.174 3.638 2.938 5.365l.28-.286zm7.96 1.64c-2.167 1.584-5.26 1.003-7.96-1.64l-.28.286c2.772 2.713 6.085 3.425 8.476 1.678l-.236-.323zm2.105.105a7.216 7.216 0 00-.634-.37 1.335 1.335 0 00-.506-.153c-.335-.02-.61.16-.965.419l.236.323c.372-.272.534-.353.706-.343a.97.97 0 01.353.113c.155.077.345.19.596.35l.214-.34zm6.22 5.757c-.024-.151-.112-.324-.227-.5a5.953 5.953 0 00-.474-.613 19.282 19.282 0 00-1.514-1.528c-1.2-1.1-2.708-2.298-4.005-3.116l-.214.338c1.273.803 2.76 1.984 3.948 3.073a18.893 18.893 0 011.483 1.495c.187.216.336.408.44.57.11.167.159.28.169.345l.395-.064zm-2.26.382c.525.545 1.109.83 1.575.779a.746.746 0 00.581-.363c.124-.21.156-.484.105-.798l-.395.064c.042.258.006.428-.054.53a.348.348 0 01-.28.169c-.286.031-.754-.15-1.244-.659l-.288.278zm-4.406-3.861c1.366.919 2.693 2.08 4.406 3.86l.288-.277c-1.724-1.792-3.073-2.974-4.47-3.915l-.224.332zm-.675-.373c.04 0 .095.01.205.07.112.062.255.158.47.303l.224-.332c-.208-.14-.37-.25-.503-.322a.798.798 0 00-.407-.119l.011.4zm-.457.227a4.2 4.2 0 01.305-.178.37.37 0 01.152-.049l-.011-.4a.759.759 0 00-.318.09c-.098.049-.21.117-.338.197l.21.34zm-13.436-8.71c.44 3.221 2.632 6.106 5.278 7.832 2.64 1.723 5.797 2.329 8.157.878l-.209-.34c-2.172 1.334-5.152.809-7.73-.873-2.571-1.678-4.68-4.47-5.1-7.551l-.396.054zm2.677-6.148c-1.911 1.32-2.995 3.814-2.677 6.148l.397-.054c-.299-2.188.723-4.533 2.507-5.765l-.227-.329zm-1.3-4.962c1.14 1.31 1.783 2.347 1.978 3.161.097.402.082.74-.028 1.028-.11.288-.322.545-.652.773l.227.33c.381-.264.654-.581.798-.96.145-.38.155-.803.044-1.264-.219-.913-.917-2.012-2.065-3.33l-.302.262zm-6.065-2.683c.593-.576 1.439-.662 2.493-.215 1.058.449 2.287 1.424 3.572 2.898l.302-.262c-1.304-1.497-2.581-2.522-3.718-3.004-1.141-.484-2.179-.432-2.928.296l.279.287zm-.22.207c0 .036-.02.042.023-.009.04-.047.1-.104.197-.198l-.28-.287c-.085.084-.166.16-.221.225a.418.418 0 00-.12.282l.4-.013zm.434.297c-.185-.126-.304-.207-.38-.27-.088-.072-.056-.072-.055-.027l-.4.013c.006.152.119.256.201.324.094.077.233.17.408.29l.226-.33zm5.32 5.168c-.022-.134-.099-.286-.196-.439-.1-.158-.237-.34-.4-.536a17.522 17.522 0 00-1.284-1.352c-1.02-.98-2.308-2.064-3.44-2.84l-.226.33c1.11.761 2.381 1.83 3.389 2.798.503.485.938.941 1.253 1.32.158.189.282.356.37.494a.92.92 0 01.139.288l.395-.064zm-2.261.38c.524.543 1.108.825 1.574.774a.749.749 0 00.58-.36c.125-.21.157-.482.107-.794l-.395.063c.041.256.005.425-.055.526a.35.35 0 01-.28.167c-.287.032-.756-.15-1.244-.653l-.287.278zm-4.912-4.168c-.001 0 .013 0 .049.013.033.012.077.03.131.059.109.055.246.14.41.252.327.224.744.547 1.213.94a42.67 42.67 0 013.109 2.905l.287-.278a43.09 43.09 0 00-3.14-2.934 17.158 17.158 0 00-1.243-.963 4.424 4.424 0 00-.453-.278c-.118-.061-.249-.116-.363-.116v.4zM3.015 20.12c.235-.528.533-1.078.795-1.495.131-.21.25-.38.347-.497a.985.985 0 01.113-.122l.02-.015c-.001 0-.005.003-.013.005a.133.133 0 01-.04.006v-.4a.291.291 0 00-.138.038.525.525 0 00-.089.062 1.4 1.4 0 00-.162.172 5.42 5.42 0 00-.377.538c-.272.433-.578 1-.821 1.545l.365.163zm27.187 26.632c-3.21 1.61-6.879 1.597-10.5.448-3.62-1.15-7.181-3.433-10.154-6.344C3.59 35.019.064 26.744 3.015 20.119l-.365-.163c-3.054 6.855.615 15.304 6.619 21.184 3.008 2.947 6.621 5.269 10.313 6.44 3.691 1.172 7.473 1.197 10.799-.472l-.18-.357zm4.106-3.86c-.032.243-.156.537-.375.867-.218.327-.52.676-.89 1.03-.742.705-1.743 1.411-2.841 1.963l.179.357c1.131-.567 2.165-1.296 2.937-2.03.386-.369.71-.74.948-1.099.236-.355.396-.71.439-1.038l-.397-.05zm-4.924-6.188c1.386.932 2.67 2.15 3.582 3.311.456.58.816 1.143 1.05 1.643.235.506.331.927.292 1.233l.397.051c.053-.418-.08-.922-.327-1.453-.25-.536-.628-1.124-1.097-1.72a16.669 16.669 0 00-3.674-3.397l-.223.331zm-1.096-1.336c0 .116.008.229.04.34.034.113.09.214.177.314.16.187.438.385.879.681l.223-.331c-.454-.306-.68-.473-.8-.611a.438.438 0 01-.095-.167.8.8 0 01-.024-.226h-.4zm8.156 6.88c-.113-.906-.675-1.988-1.428-3.04a18.582 18.582 0 00-2.676-2.958c-.948-.843-1.902-1.503-2.635-1.754-.36-.124-.717-.166-.994-.02-.296.154-.423.478-.423.892h.4c0-.345.103-.483.21-.539.125-.066.345-.07.678.045.655.225 1.56.84 2.498 1.675.933.83 1.88 1.86 2.617 2.892.742 1.038 1.256 2.053 1.356 2.856l.397-.05zM31.893 48.3c1.583-.93 2.781-1.919 3.554-2.935.774-1.017 1.127-2.07.997-3.118l-.397.05c.114.916-.19 1.868-.918 2.826-.73.96-1.882 1.918-3.439 2.832l.203.345zM1.407 18.509c-4.012 7.71-.046 17.335 6.688 23.917 6.732 6.58 16.359 10.241 23.798 5.873l-.203-.345c-7.202 4.23-16.63.72-23.316-5.814C1.69 35.605-2.128 26.169 1.762 18.693l-.355-.184z" fill="#FAF8F7" mask="url(#a)"/></svg>