<svg width="20" height="18" fill="none" xmlns="http://www.w3.org/2000/svg"><path d="M5.533.784C3.03.784 1 2.734 1 5.138c0 1.941.793 6.549 8.602 11.206a.914.914 0 00.929 0c7.809-4.657 8.602-9.265 8.602-11.206 0-2.405-2.03-4.354-4.533-4.354-2.503 0-4.533 2.639-4.533 2.639S8.037.784 5.533.784z" stroke="#1D1700" stroke-width="1.36" stroke-linecap="round" stroke-linejoin="round"/><path d="M5.533.784C3.03.784 1 2.734 1 5.138c0 1.941.793 6.549 8.602 11.206a.914.914 0 00.929 0c7.809-4.657 8.602-9.265 8.602-11.206 0-2.405-2.03-4.354-4.533-4.354-2.503 0-4.533 2.639-4.533 2.639S8.037.784 5.533.784z" stroke="#000" stroke-opacity=".2" stroke-width="1.36" stroke-linecap="round" stroke-linejoin="round"/></svg>