<svg width="188" height="134" fill="none" xmlns="http://www.w3.org/2000/svg"><path stroke="#0278E6" stroke-width="2" stroke-linecap="round" d="M29.843 132.148l7.578.757m-.042.072l39.144-.91"/><path d="M124.371 75.633L112.51 80.22l-26.352 47.082 31.679-2.221h67.832L149.8 77.568l-25.429-1.935z" stroke="#0278E6" stroke-width="2"/><path stroke="#0278E6" stroke-width="2" stroke-linecap="round" d="M114.336 125.666l2.718 4.077m-.306.486l-67.849.93m-2.218-24.567l-8.998 24.894m5.116-23.827l-12.7 24.011m17.997-.332l19.397-34.555"/><path stroke="#0278E6" stroke-width="2" d="M66.526 97.728l6.365-3.628m17.866-.924l8.714 10.542M73.72 93.77H91.9m-18.181.337l-11.483 37.317m-.894-23.39l-.87-1.193"/><path stroke="#0278E6" stroke-width="2" stroke-linecap="round" d="M60.413 106.71l-13.36-.371"/><path stroke="#0278E6" stroke-width="2" d="M125.431 75.476l-6.542 49.063"/><path d="M58.41 72.414l1 .017.027-1.511-1.402.567.375.927zm-4.048.969l.008-1-.008 1zm-5.3-1.863l.511-.86-.029-.017-.03-.015-.451.892zm-2.428.298l.999.047.03-.647-.577-.292-.452.892zm12.187 34.451l.59-33.838-2-.034-.59 33.837 2 .035zm-.41-33.855l-.376-.927-.004.002-.017.006c-.015.007-.04.016-.071.028a18.244 18.244 0 01-1.236.423c-.794.24-1.684.442-2.337.437l-.016 2c.972.008 2.105-.273 2.93-.522a20.27 20.27 0 001.467-.506l.024-.01a.335.335 0 01.01-.004l-.375-.927zm-4.04-.03c-.878-.008-2.043-.398-3.076-.854a19.002 19.002 0 01-1.695-.855l-.022-.012-.005-.003-.51.86-.51.86.004.002.008.005.031.018.112.064a21.073 21.073 0 001.78.89c1.068.472 2.553 1.013 3.866 1.024l.016-2zm-5.308-.864l.451-.892-.002-.002a.081.081 0 01-.004-.002l-.014-.007-.049-.024-.172-.083a13.192 13.192 0 00-.564-.25 8.034 8.034 0 00-.722-.263 2.992 2.992 0 00-.838-.148v2c-.005 0 .072.005.257.062.164.05.352.12.538.197a11.074 11.074 0 01.657.299l.009.004.001.001.452-.892zm-1.914-1.671c-1.08 0-2.029.942-1.686 1.983l1.9-.625c.056.17.035.304.017.371a.434.434 0 01-.088.173c-.083.097-.166.098-.143.098v-2zm-1.686 1.983c.09.275.234.48.377.623a1.43 1.43 0 00.312.239l.016.008.007.004.004.002.001.001h.001s.001.001.453-.891l.453-.892.002.001.004.002a.145.145 0 01.006.004l.014.007a.943.943 0 01.07.044.52.52 0 01.08.066.41.41 0 01.1.157l-1.9.625zm.172-.061l-1.62 34.285 1.998.094 1.62-34.285-1.998-.094z" fill="#0278E6"/><path stroke="#0278E6" stroke-width="2" stroke-linecap="round" d="M46.152 106.478l-2.826.588"/><path stroke="#0278E6" stroke-width="2" d="M73.216 64.097l-14.363 9.244"/><path d="M88.072 54.365h1v-1.998l-1.6 1.197.6.8zm-15.097.767l-.926.378.926-.378zm.355.559l1 .014.005-.36-.226-.281-.78.627zm15.742 38.8V54.365h-2V94.49h2zm-1-40.126c-.6-.8-.599-.801-.598-.802l.002-.002.003-.002.004-.002c.002-.002.002-.002 0 0a2.33 2.33 0 01-.205.118c-.17.087-.446.21-.83.322-.767.222-1.985.404-3.684.147l-.3 1.977c1.988.301 3.498.099 4.54-.203.518-.15.915-.323 1.193-.466a4.342 4.342 0 00.422-.25l.032-.022.011-.008a.3.3 0 01.005-.004l.002-.001h.001c0-.001.001-.002-.598-.802zm-5.308-.221c-1.73-.262-3.081-.753-4.189-1.223a46.57 46.57 0 01-.796-.349c-.25-.111-.498-.222-.732-.322-.458-.196-.934-.38-1.398-.471l-.386 1.962c.245.048.557.16.999.348.215.093.445.195.703.31.255.114.532.237.83.363 1.195.507 2.715 1.063 4.67 1.36l.3-1.978zm-7.115-2.365c-.814-.16-1.448-.143-1.979.039-.506.173-.863.502-.943.562l1.205 1.597c.275-.208.272-.228.386-.267.09-.03.342-.088.945.03l.386-1.962zm-2.922.601c-.25.189-.42.44-.53.653a3.02 3.02 0 00-.264.736c-.11.502-.128 1.142.116 1.741l1.852-.755c-.049-.12-.066-.324-.015-.553.024-.106.056-.19.084-.244.035-.066.035-.036-.038.019l-1.205-1.597zm-.678 3.13c.093.227.236.442.32.563.047.068.091.127.123.17l.04.05.012.016.004.005.001.002.001.001a491.736 491.736 0 001.56-1.253v.001l-.005-.006-.02-.027a3.108 3.108 0 01-.154-.223c-.024-.04-.031-.058-.03-.054l-1.852.755zm.28.166l-.566 39.08 2 .028.567-39.079-2-.029z" fill="#0278E6"/><path d="M120.331 76.59l-1.641-53.568s.171-2.75.928-4.294c1.52-3.105 5.134-4.717 7.203-5.35 2.068-.633 5.063-1.267 8.415-.634 3.352.634 4.065 4.576 4.065 4.576l2.353 59.059" stroke="#0278E6" stroke-width="2"/><path d="M115.634 18.3l-.96.282.05.17.106.143.804-.595zm-.888-8.074l.984.178-.984-.178zm3.483-7.03l.638.769-.638-.77zm6.35-2.159l.082-.996-.082.996zM110.99 9.808l.745.668-.745-.668zm-2.937 3.759l-.905-.425.905.425zm-1.024 4.594l-.997.082.997-.082zm2.663 5.29l-.724.69.724-.69zm5.805 2.993l.151-.988-.151.988zM109.214 9.67l-.018 1 .018-1zm-5.736 1.044l-.423-.906.423.906zm-5.122 4.664l.868.497-.868-.497zM97.264 25.47l.969-.247-.97.247zm6.214 8.422l.569-.822-.569.822zm7.512 2.506l-.024-1 .024 1zm5.862-1.74l-.591-.806.591.806zm2.522-12.985l-2.937-3.968-1.607 1.19 2.936 3.968 1.608-1.19zm-3.74-3.373l.959-.281v-.002a.035.035 0 01-.003-.008l-.011-.038-.042-.153a30.6 30.6 0 01-.575-2.562c-.289-1.61-.481-3.479-.232-4.852l-1.968-.357c-.317 1.748-.064 3.916.231 5.563a32.757 32.757 0 00.662 2.907l.014.046.003.013.001.004h.001v.001l.96-.28zm3.233-14.335c.961-.797 1.794-1.313 2.653-1.616.851-.3 1.786-.412 2.978-.315l.163-1.993c-1.415-.116-2.64.01-3.807.422-1.158.409-2.197 1.078-3.264 1.963l1.277 1.539zm5.631-1.93c1.842.15 3.696 1.248 4.384 1.89l1.365-1.46c-.951-.889-3.212-2.23-5.586-2.424l-.163 1.993zm4.384 1.89l.038.042a5 5 0 01.114.13c.094.112.214.26.358.442.289.363.66.845 1.087 1.409a392.148 392.148 0 012.959 3.967c1.04 1.41 2.055 2.797 2.81 3.832l.907 1.245.253.347.066.091.017.024.004.006.001.001h.001l.809-.587.809-.588-.001-.001-.005-.006a.27.27 0 00-.017-.024l-.066-.091-.253-.349-.91-1.248a959.844 959.844 0 00-2.816-3.839 388.66 388.66 0 00-2.974-3.99 94.23 94.23 0 00-1.114-1.443c-.279-.35-.543-.673-.712-.83l-1.365 1.461zm-13.152 6.479c.417-2.303.833-3.839 1.906-5.196l-1.569-1.24c-1.404 1.775-1.883 3.747-2.305 6.08l1.968.356zm1.906-5.196c.331-.418.732-.83 1.231-1.243l-1.277-1.54a10.377 10.377 0 00-1.523 1.542l1.569 1.24zm-.784-.62l-.61-.793h-.001a.353.353 0 01-.012.009c-.007.007-.019.015-.034.027l-.127.1a78.165 78.165 0 00-2.023 1.645c-1.215 1.024-2.725 2.366-3.8 3.565l1.49 1.335c.976-1.09 2.397-2.358 3.599-3.371a76.128 76.128 0 011.966-1.6l.121-.094.031-.024a.06.06 0 01.008-.005l.001-.002h.001l-.61-.792zm-6.607 4.553c-1.142 1.273-2.221 2.132-3.097 4.002l1.811.848c.711-1.516 1.434-2.019 2.776-3.515l-1.49-1.335zm-3.097 4.002c-.809 1.725-1.286 3.013-1.116 5.1l1.994-.163c-.129-1.58.185-2.494.933-4.089l-1.811-.848zm-1.116 5.1c.105 1.279.408 2.32.924 3.28.507.943 1.199 1.764 2.012 2.618l1.449-1.38c-.774-.811-1.319-1.479-1.7-2.186-.371-.69-.606-1.46-.691-2.495l-1.994.163zm2.936 5.898c.939.986 1.85 1.717 2.893 2.25 1.041.532 2.162.84 3.485 1.042l.302-1.977c-1.189-.182-2.086-.442-2.877-.846-.789-.403-1.524-.976-2.354-1.848l-1.449 1.379zm6.378 3.292c.691.106 1.538.102 2.169.079a23.031 23.031 0 001.057-.064l.067-.006.019-.001h.005l.002-.001h.001l-.096-.996-.096-.995h-.003l-.013.002a7 7 0 01-.274.022c-.186.013-.447.03-.742.04-.609.022-1.298.019-1.794-.057l-.302 1.977zM110.99 9.808l.116-.993h-.001a.05.05 0 01-.003 0l-.01-.002-.038-.004a21.994 21.994 0 00-.598-.061 17.774 17.774 0 00-1.224-.079l-.036 2c.309.005.722.037 1.074.07a29.411 29.411 0 01.56.057l.033.004a.146.146 0 01.01.001l.117-.993zm-1.758-1.139c-2.355-.042-3.917.082-6.177 1.138l.846 1.812c1.878-.877 3.1-.99 5.295-.95l.036-2zm-6.177 1.138c-1.275.595-2.311 1.22-3.215 2.038-.906.818-1.639 1.79-2.351 3.035l1.735.994c.64-1.117 1.249-1.906 1.956-2.545.709-.64 1.558-1.166 2.721-1.71l-.846-1.812zm-5.566 5.073c-2.074 3.618-2.198 6.9-1.194 10.837l1.938-.494c-.907-3.557-.767-6.281.991-9.35l-1.735-.993zm-1.194 10.837c.829 3.25 3.106 6.572 6.614 8.998l1.138-1.645c-3.153-2.18-5.117-5.111-5.814-7.847l-1.938.494zm6.614 8.998c1.308.904 2.498 1.605 3.792 2.063 1.306.462 2.669.659 4.313.62l-.048-2c-1.442.035-2.558-.138-3.598-.506-1.052-.372-2.074-.96-3.321-1.822l-1.138 1.645zm8.105 2.683c1.215-.029 2.293-.111 3.336-.394 1.06-.287 2.039-.767 3.093-1.54l-1.182-1.612c-.883.646-1.642 1.008-2.434 1.222-.807.219-1.692.297-2.861.325l.048 2zm6.429-1.933c.545-.4 1.115-.984 1.522-1.43a19.596 19.596 0 00.667-.767l.042-.05.011-.015.004-.004h.001v-.001l-.779-.628-.778-.628-.002.003-.008.01-.034.041-.133.159c-.115.136-.278.324-.467.532-.392.429-.852.889-1.228 1.165l1.182 1.613z" fill="#0278E6"/><path stroke="#0278E6" stroke-width="2" d="M117.344 34.356L86.725 55.407m14.421-43.11L36.082 65.88"/><path d="M34.714 68.66l-.898-.44.898.44zm-1.119 2.996l-.993-.115.993.115zm.7 3.832l.889-.457-.89.457zm3.076 2.996l.482-.876-.482.876zm5.174.905l-.085-.996.085.996zm-5.454-14.281l-.781-.624-.002.002-.004.006a2.75 2.75 0 00-.072.09c-.048.062-.118.151-.203.263-.17.222-.405.534-.663.895-.508.71-1.143 1.653-1.55 2.48l1.795.882c.33-.671.884-1.504 1.38-2.197a34.036 34.036 0 01.815-1.09 6.145 6.145 0 01.063-.08c.002 0 .002-.002.003-.002v-.001l-.78-.624zm-3.275 3.112c-.509 1.036-1.045 1.865-1.214 3.321l1.986.23c.12-1.023.43-1.463 1.023-2.67l-1.795-.881zm-1.214 3.321c-.095.82-.1 1.544.032 2.27.133.726.394 1.401.77 2.134l1.78-.914c-.32-.62-.495-1.106-.582-1.58-.087-.474-.094-.988-.014-1.68l-1.986-.23zm.803 4.404c.425.827.89 1.47 1.477 2.024.579.545 1.24.969 2.007 1.39l.964-1.751c-.704-.388-1.198-.717-1.599-1.095-.392-.37-.73-.82-1.07-1.482l-1.78.914zm3.484 3.415c2.031 1.118 3.586 1.21 5.741 1.026l-.17-1.993c-1.934.165-3.047.073-4.607-.785l-.964 1.752zm5.741 1.026c.802-.069 1.745-.323 2.44-.538a23.354 23.354 0 001.252-.428l.005-.002h.002l.001-.001a461.593 461.593 0 00-.718-1.867l-.004.002-.014.005a9.263 9.263 0 01-.299.11 20.6 20.6 0 01-.815.27c-.672.208-1.443.407-2.02.456l.17 1.993z" fill="#0278E6"/><path d="M37.18 64.884l-4.706-.733m0 0l-.9 16.57 13.919 1.132-.352 1.435-15.436-1.027.762-16.277 2.007-1.833z" stroke="#0278E6" stroke-width="2"/><path d="M35.353 57.602h1v-.899l-.894-.095-.106.994zm-7.382-.413l.463-.887-.2-.104-.224-.009-.039 1zm-13.343-.414l.744-.668-.298-.332h-.446v1zm2.13-16.545h1v-1.04l-1.04.041.04 1zm0 .62h-1v.908l.902.088.097-.995zm12.065 1.173l-.096.995.393.038.313-.241-.61-.792zm2.059.275l.093-.995-1.093-.102v1.097h1zm7.381.69l.395-.919-.145-.062-.157-.015-.093.996zm4.969 2.137l.644-.765-.113-.095-.136-.059-.395.919zm3.762 3.17l.754-.656-.051-.058-.059-.05-.644.765zm2.342 2.69l.884-.468-.054-.102-.076-.088-.754.657zM36.353 64.15v-6.549h-2v6.55h2zm-1-6.549l.106-.994h-.003l-.008-.001-.033-.004-.125-.013a220.133 220.133 0 00-1.851-.19c-1.009-.1-2.196-.212-2.557-.212v2c.233 0 1.28.096 2.36.203a290.772 290.772 0 011.962.2l.032.004.009.001h.002l.106-.994zm-4.471-1.413c-.178 0-.432.029-.681.177a1.176 1.176 0 00-.525.666c-.07.223-.063.426-.051.552.012.133.04.257.063.352.024.096.052.196.075.277.025.088.046.163.065.238.04.154.054.255.054.323h2c0-.311-.06-.598-.114-.812-.028-.11-.058-.213-.081-.297a6.215 6.215 0 01-.057-.207c-.014-.056-.015-.07-.014-.061 0 .002.011.097-.03.23a.824.824 0 01-.365.459.685.685 0 01-.34.102v-2zm-1 2.585a.84.84 0 01.5-.733.824.824 0 01.42-.077.513.513 0 01.126.026c.002 0-.041-.017-.145-.08a6.38 6.38 0 01-.35-.237c-.495-.352-1.35-1.033-2-1.371l-.924 1.773c.487.254 1.088.746 1.764 1.227.275.197.64.447.972.568.127.046.54.188.979-.015.577-.267.658-.832.658-1.08h-2zm-1.91-1.586l.038-.999h-.031a1.395 1.395 0 00-.09-.004l-.34-.014c-.294-.01-.714-.027-1.22-.046-1.012-.04-2.366-.09-3.736-.143a663.6 663.6 0 00-5.836-.207v2h.055l.126.004.414.013a2399.276 2399.276 0 018.9.331l1.22.047.34.013.09.004h.03l.04-.998zm-11.215-1.413c-.19 0-.46.038-.718.216-.272.19-.407.453-.464.675-.092.352-.011.705.018.838.1.453.185.658.196.944l1.998-.076a4.204 4.204 0 00-.114-.783c-.025-.109-.052-.213-.074-.298a7.024 7.024 0 01-.065-.28l-.003-.02a.64.64 0 01-.02.176.826.826 0 01-.328.466.758.758 0 01-.426.142v-2zm-.969 2.673a.787.787 0 01.101-.4.912.912 0 01.633-.46.792.792 0 01.388.02c.048.016.067.03.051.02-.09-.051-.285-.207-.558-.462a17.559 17.559 0 01-.944-.964l-.066-.071-.016-.019-.004-.004-.745.667-.745.668h.001l.002.002.005.006.02.023a22.22 22.22 0 001.124 1.151c.272.255.618.558.93.738.085.048.196.105.325.147.116.038.334.093.595.045.316-.058.6-.252.763-.554.135-.25.144-.493.139-.629l-1.998.076zm-1.16-2.673H9.162v2h5.466v-2zM1.039 41.85l15.757-.62-.078-1.999-15.757.62.078 1.999zm14.718-1.62v.62h2v-.62h-2zm.903 1.616l12.067 1.172.193-1.99-12.066-1.173-.194 1.991zm12.163.177l.61.792h.001l.011-.01a4.61 4.61 0 01.25-.173 3.89 3.89 0 01.557-.313c.09-.04.152-.058.186-.066.041-.008-.007.01-.106-.013a.638.638 0 01-.383-.275c-.08-.127-.067-.21-.067-.15h2c0-.283-.051-.618-.245-.922a1.363 1.363 0 00-.849-.6c-.536-.126-1.06.073-1.335.192a5.903 5.903 0 00-.858.476 7.786 7.786 0 00-.348.243l-.023.018-.007.005-.002.002h-.001v.001l.61.793zm1.059-.207v.768h2v-.285h-2v.286h2v-.768h-2zm.907 1.478l7.381.69.186-1.992-7.381-.69-.186 1.992zm7.08.612l4.968 2.137.79-1.837-4.969-2.137-.79 1.837zm4.718 1.983l3.762 3.171 1.29-1.529-3.763-3.17-1.289 1.528zm3.653 3.064l2.342 2.688 1.508-1.314-2.342-2.688-1.508 1.314zm2.212 2.498l1.42 2.689 1.768-.934-1.42-2.689-1.768.934z" fill="#0278E6"/><path stroke="#0278E6" stroke-width="2" d="M31.662 42.144v15.309M18.266 41.187v16.266"/></svg>