<svg width="30" height="29" fill="none" xmlns="http://www.w3.org/2000/svg"><g filter="url(#filter0_d_1_684)"><circle cx="21" cy="18.572" r="1.143" fill="#1D1700"/><circle cx="21" cy="18.572" r="1.143" fill="#000" fill-opacity=".2"/><circle cx="21" cy="18.572" r="1.143" stroke="#1D1700" stroke-width=".571"/><circle cx="21" cy="18.572" r="1.143" stroke="#000" stroke-opacity=".2" stroke-width=".571"/><circle cx="13" cy="18.572" r="1.143" fill="#1D1700"/><circle cx="13" cy="18.572" r="1.143" fill="#000" fill-opacity=".2"/><circle cx="13" cy="18.572" r="1.143" stroke="#1D1700" stroke-width=".571"/><circle cx="13" cy="18.572" r="1.143" stroke="#000" stroke-opacity=".2" stroke-width=".571"/><path d="M7 3.429A.571.571 0 007 4.57V3.43zm3.488 1.44l.554-.138-.554.137zm2.115 8.548l-.554.138.554-.138zm8.801.014l.553.144-.553-.144zm1.223-4.694l-.553-.144.553.144zm-7.99-2.002a.571.571 0 100 1.143V6.735zM7 4.57h2.378V3.43H7v1.14zm2.933.435l2.116 8.549 1.109-.275-2.116-8.549-1.11.275zm3.78 9.851h6.586v-1.143h-6.586v1.143zm8.245-1.282L23.18 8.88l-1.106-.288-1.223 4.694 1.107.288zm-.437-6.84h-6.885v1.143h6.885V6.735zm1.66 2.146a1.714 1.714 0 00-1.66-2.146v1.143a.57.57 0 01.553.715l1.106.288zm-2.883 5.976c.78 0 1.463-.527 1.66-1.282l-1.106-.288a.572.572 0 01-.553.427v1.143zm-8.25-1.302c.19.765.877 1.302 1.665 1.302v-1.143a.571.571 0 01-.555-.434l-1.11.275zM9.379 4.57c.263 0 .492.18.555.435l1.11-.275a1.714 1.714 0 00-1.665-1.302V4.57z" fill="#1D1700"/><path d="M7 3.429A.571.571 0 007 4.57V3.43zm3.488 1.44l.554-.138-.554.137zm2.115 8.548l-.554.138.554-.138zm8.801.014l.553.144-.553-.144zm1.223-4.694l-.553-.144.553.144zm-7.99-2.002a.571.571 0 100 1.143V6.735zM7 4.57h2.378V3.43H7v1.14zm2.933.435l2.116 8.549 1.109-.275-2.116-8.549-1.11.275zm3.78 9.851h6.586v-1.143h-6.586v1.143zm8.245-1.282L23.18 8.88l-1.106-.288-1.223 4.694 1.107.288zm-.437-6.84h-6.885v1.143h6.885V6.735zm1.66 2.146a1.714 1.714 0 00-1.66-2.146v1.143a.57.57 0 01.553.715l1.106.288zm-2.883 5.976c.78 0 1.463-.527 1.66-1.282l-1.106-.288a.572.572 0 01-.553.427v1.143zm-8.25-1.302c.19.765.877 1.302 1.665 1.302v-1.143a.571.571 0 01-.555-.434l-1.11.275zM9.379 4.57c.263 0 .492.18.555.435l1.11-.275a1.714 1.714 0 00-1.665-1.302V4.57z" fill="#000" fill-opacity=".2"/></g><defs><filter id="filter0_d_1_684" x=".429" y=".429" width="28.808" height="28.571" filterUnits="userSpaceOnUse" color-interpolation-filters="sRGB"><feFlood flood-opacity="0" result="BackgroundImageFix"/><feColorMatrix in="SourceAlpha" values="0 0 0 0 0 0 0 0 0 0 0 0 0 0 0 0 0 0 127 0" result="hardAlpha"/><feOffset dy="3"/><feGaussianBlur stdDeviation="3"/><feComposite in2="hardAlpha" operator="out"/><feColorMatrix values="0 0 0 0 0.113725 0 0 0 0 0.0901961 0 0 0 0 0 0 0 0 0.1 0"/><feBlend in2="BackgroundImageFix" result="effect1_dropShadow_1_684"/><feBlend in="SourceGraphic" in2="effect1_dropShadow_1_684" result="shape"/></filter></defs></svg>