<svg width="19" height="17" fill="none" xmlns="http://www.w3.org/2000/svg"><path d="M.61 15.443a.68.68 0 10.78 1.114l-.78-1.114zm16.327 1.114a.68.68 0 10.78-1.114l-.78 1.114zM1 16a105.546 105.546 0 01.39.558h-.001l.004-.003a2.007 2.007 0 01.12-.078c.09-.057.226-.14.406-.24.36-.203.895-.475 1.578-.748a15.316 15.316 0 015.666-1.095v-1.36c-2.554 0-4.682.596-6.17 1.192-.746.298-1.334.597-1.739.824a10.29 10.29 0 00-.628.382l-.01.007-.004.002-.001.001S.61 15.444 1 16zm8.163-1.606c2.344 0 4.298.547 5.666 1.095.683.273 1.218.545 1.578.747a8.888 8.888 0 01.53.322l.39-.558.39-.557h-.001l-.002-.002s-.002 0-.003-.002l-.01-.007-.035-.023a10.272 10.272 0 00-.594-.359 14.925 14.925 0 00-1.738-.824 16.679 16.679 0 00-6.17-1.192v1.36z" fill="#1D1700"/><path d="M.61 15.443a.68.68 0 10.78 1.114l-.78-1.114zm16.327 1.114a.68.68 0 10.78-1.114l-.78 1.114zM1 16a105.546 105.546 0 01.39.558h-.001l.004-.003a2.007 2.007 0 01.12-.078c.09-.057.226-.14.406-.24.36-.203.895-.475 1.578-.748a15.316 15.316 0 015.666-1.095v-1.36c-2.554 0-4.682.596-6.17 1.192-.746.298-1.334.597-1.739.824a10.29 10.29 0 00-.628.382l-.01.007-.004.002-.001.001S.61 15.444 1 16zm8.163-1.606c2.344 0 4.298.547 5.666 1.095.683.273 1.218.545 1.578.747a8.888 8.888 0 01.53.322l.39-.558.39-.557h-.001l-.002-.002s-.002 0-.003-.002l-.01-.007-.035-.023a10.272 10.272 0 00-.594-.359 14.925 14.925 0 00-1.738-.824 16.679 16.679 0 00-6.17-1.192v1.36z" fill="#000" fill-opacity=".2"/><circle cx="9.164" cy="5.878" r="5.198" stroke="#1D1700" stroke-width="1.36"/><circle cx="9.164" cy="5.878" r="5.198" stroke="#000" stroke-opacity=".2" stroke-width="1.36"/></svg>