<svg width="19" height="18" fill="none" xmlns="http://www.w3.org/2000/svg"><path d="M13.041 4.304c.154.598.538.985 1.134 1.138 1.022.261 2.019-.662 1.85-1.705a1.553 1.553 0 00-1.073-1.232h0l-.596.074-.018-.13c-.895.124-1.516.998-1.296 1.855zm0 0l.127-.032-.127.032s0 0 0 0zm1.66-.18h0c.098-.104.073-.288-.034-.355a.275.275 0 00-.168-.051.242.242 0 00-.146.074l.348.332zm0 0a.255.255 0 01-.135.08m.135-.08l-.135.08m0 0a.236.236 0 01-.148-.024l.148.023zM.92 4.478h0L3.33.823A4.82 4.82 0 00.92 4.479zm16.164-.302l.125-.035-.125.035.085.307v8.997l-.085.307.125.035-.125-.035c-.19.684-.486 1.205-.945 1.664-.458.459-.979.755-1.663.944l.035.126-.035-.125-.307.084H5.175l-.307-.085c-.684-.189-1.204-.485-1.663-.944-.459-.459-.755-.98-.945-1.664l-.125.035.125-.035-.084-.306V4.483l.084-.307h0c.19-.683.486-1.205.943-1.662A3.602 3.602 0 015.21 1.503l-.02-.13.02.13s0 0 0 0l.03-.002.085-.003a135.691 135.691 0 011.302-.014C7.46 1.48 8.58 1.478 9.79 1.48l4.38.005.306.085c.683.188 1.204.485 1.663.944l.092-.092-.092.092c.459.46.756.98.945 1.664zm-8.081-.008c-1.924.262-3.545 1.71-4.036 3.603a4.825 4.825 0 001.278 4.638 4.81 4.81 0 006.854 0 4.813 4.813 0 000-6.855A4.795 4.795 0 009.003 4.17zm1.19 1.27c.785.119 1.45.455 2.008 1.013l.093-.092-.093.092a3.565 3.565 0 010 5.06 3.562 3.562 0 01-5.058 0 3.565 3.565 0 010-5.06L7.05 6.36l.093.092a3.537 3.537 0 013.05-1.013z" fill="#FAF8F7" stroke="#FAF8F7" stroke-width=".261"/></svg>