<svg width="303" height="52" fill="none" xmlns="http://www.w3.org/2000/svg"><path d="M102.123 25.247L89.84 40.628h-4.575V15.413h5.584v15.454l12.211-15.454h4.647v25.215h-5.584v-15.38zm29.283 0l-12.283 15.381h-4.575V15.413h5.584v15.454l12.211-15.454h4.647v25.215h-5.584v-15.38zm31.481 7.06l3.314 3.567c-1.081 1.657-2.618 2.941-4.611 3.854a14.736 14.736 0 01-6.124 1.333c-3.914 0-7.048-1.213-9.401-3.639-2.33-2.425-3.495-5.559-3.495-9.401 0-3.746 1.249-6.856 3.747-9.33 2.497-2.473 5.595-3.71 9.293-3.71 2.017 0 3.975.408 5.872 1.225 1.921.816 3.362 2.005 4.322 3.566l-3.782 3.458c-.696-.864-1.597-1.549-2.702-2.053-1.08-.529-2.185-.793-3.314-.793-2.281 0-4.13.709-5.547 2.126-1.393 1.392-2.089 3.23-2.089 5.51 0 2.21.708 4.035 2.125 5.476 1.417 1.441 3.23 2.161 5.439 2.161 2.858 0 5.176-1.116 6.953-3.35zm13.914-11.67h-8.068v-5.224h21.757v5.224h-8.105v19.991h-5.584V20.637zm23.757 12.067v7.924h-5.583V15.413h10.446c2.041 0 3.83.264 5.367.793 1.537.528 2.81 1.465 3.819 2.81 1.008 1.32 1.512 3.013 1.512 5.079 0 1.993-.528 3.662-1.585 5.007-1.056 1.32-2.365 2.257-3.926 2.81-1.537.528-3.266.792-5.187.792h-4.863zm5.007-12.067h-5.007v6.844h4.791c3.314 0 4.971-1.141 4.971-3.423 0-2.28-1.585-3.421-4.755-3.421zm16.342 19.991h-5.763l11.059-25.215h4.142l11.059 25.215h-5.836l-2.053-4.682h-10.554l-2.054 4.682zm10.555-9.401l-3.242-7.529-3.314 7.529h6.556zm36.322 9.401h-5.583V20.817h-7.889l-.144 2.917c-.24 5.524-.865 9.618-1.873 12.284-.649 1.753-1.537 2.977-2.666 3.674-1.104.696-2.617 1.044-4.539 1.044a9.11 9.11 0 01-1.44-.108v-5.187c.432.048.732.072.9.072 1.273 0 2.197-.588 2.774-1.765.36-.72.684-2.101.972-4.142.289-2.065.469-5.848.541-11.347l.036-2.846h18.911v25.215zm17.131-11.634h-4.683v6.411h4.574c3.314 0 4.971-1.092 4.971-3.278 0-2.089-1.621-3.134-4.862-3.134zm-10.303-13.58h5.62v8.356h4.755c1.488 0 2.833.144 4.034.433 1.225.264 2.341.708 3.35 1.332 1.009.6 1.789 1.465 2.341 2.594.577 1.105.865 2.437.865 3.998 0 1.537-.3 2.882-.901 4.035-.576 1.128-1.392 2.005-2.449 2.63a12.912 12.912 0 01-3.458 1.404c-1.225.288-2.582.432-4.071.432h-10.086V15.413z" fill="#1D1700"/><path d="M102.123 25.247L89.84 40.627h-4.575V15.414h5.584v15.453l12.211-15.453h4.647v25.215h-5.584V25.247zm29.283 0l-12.283 15.38h-4.575V15.414h5.584v15.453l12.211-15.453h4.647v25.215h-5.584V25.247zm31.481 7.06l3.314 3.566c-1.081 1.657-2.618 2.942-4.611 3.854a14.736 14.736 0 01-6.124 1.333c-3.914 0-7.048-1.213-9.401-3.638-2.33-2.425-3.495-5.56-3.495-9.402 0-3.746 1.249-6.856 3.747-9.33 2.497-2.473 5.595-3.71 9.293-3.71 2.017 0 3.975.409 5.872 1.225 1.921.817 3.362 2.006 4.322 3.567l-3.782 3.458c-.696-.865-1.597-1.55-2.702-2.054-1.08-.528-2.185-.792-3.314-.792-2.281 0-4.13.708-5.547 2.125-1.393 1.393-2.089 3.23-2.089 5.511 0 2.21.708 4.035 2.125 5.476 1.417 1.44 3.23 2.161 5.439 2.161 2.858 0 5.176-1.117 6.953-3.35zm13.914-11.671h-8.068v-5.223h21.757v5.223h-8.105v19.992h-5.584V20.636zm23.757 12.067v7.925h-5.583V15.413h10.446c2.041 0 3.83.264 5.367.792 1.537.529 2.81 1.465 3.819 2.81 1.008 1.32 1.512 3.014 1.512 5.079 0 1.993-.528 3.662-1.585 5.007-1.056 1.32-2.365 2.257-3.926 2.81-1.537.528-3.266.792-5.187.792h-4.863zm5.007-12.067h-5.007v6.844h4.791c3.314 0 4.971-1.14 4.971-3.422 0-2.281-1.585-3.422-4.755-3.422zm16.342 19.992h-5.763l11.059-25.215h4.142l11.059 25.215h-5.836l-2.053-4.683h-10.554l-2.054 4.683zm10.555-9.402l-3.242-7.528-3.314 7.528h6.556zm36.322 9.402h-5.583V20.816h-7.889l-.144 2.918c-.24 5.523-.865 9.618-1.873 12.283-.649 1.753-1.537 2.978-2.666 3.674-1.104.697-2.617 1.045-4.539 1.045a9.23 9.23 0 01-1.44-.108V35.44c.432.048.732.072.9.072 1.273 0 2.197-.588 2.774-1.765.36-.72.684-2.101.972-4.143.289-2.065.469-5.847.541-11.346l.036-2.846h18.911v25.215zm17.131-11.635h-4.683v6.412h4.574c3.314 0 4.971-1.093 4.971-3.278 0-2.09-1.621-3.134-4.862-3.134zm-10.303-13.58h5.62v8.357h4.755c1.488 0 2.833.144 4.034.432a10.51 10.51 0 013.35 1.333c1.009.6 1.789 1.465 2.341 2.593.577 1.105.865 2.438.865 3.999 0 1.537-.3 2.882-.901 4.034-.576 1.129-1.392 2.005-2.449 2.63a12.912 12.912 0 01-3.458 1.405c-1.225.288-2.582.432-4.071.432h-10.086V15.413z" fill="#1D1700"/><path fill-rule="evenodd" clip-rule="evenodd" d="M78.195 15.302L59.348 0l-32.64 40.201h31.27l20.217-24.9zM25.938 41.247v-.096l-.047.058.047.038zm6.59-16.652l-11.72-9.585-20.3 25.182h19.448l12.572-15.597zM.03 40.847v-.061l-.03.037.03.024z" fill="#0278E6"/><path fill-rule="evenodd" clip-rule="evenodd" d="M90.135 19.325l-4.855-3.942-20.41 25.14h8.054l17.211-21.198z" fill="#1D1700"/></svg>