<svg width="22" height="14" fill="none" xmlns="http://www.w3.org/2000/svg"><path fill-rule="evenodd" clip-rule="evenodd" d="M6.932 8.428C5.444 6.981 4.518 4.596 4.26 1.547L4.169.46H2.366C1.374.46.536.487.503.52c-.12.12.157 2.892.4 3.996 1.253 5.705 4.927 9.008 10.374 9.328l1.349.08v-4.79l.494.085c.732.125 2.066.772 2.759 1.338.653.533 1.764 2.117 2.012 2.87l.151.457h3.829l-.085-.428c-.123-.612-.76-1.928-1.368-2.82-.674-.989-1.839-2.133-2.945-2.893l-.877-.602.812-.649c1.518-1.213 2.815-3.015 3.368-4.679.22-.66.353-1.002.236-1.174-.137-.2-.612-.172-1.682-.149l-1.72.037-.362.86c-.479 1.134-1.302 2.33-2.083 3.023-.596.53-2.015 1.315-2.376 1.315-.126 0-.164-.614-.164-2.632V.461H9.073v9.231l-.296-.089c-.511-.152-1.33-.674-1.845-1.175z" fill="#FAF8F7"/></svg>