<svg width="149" height="133" fill="none" xmlns="http://www.w3.org/2000/svg"><path d="M12.688 22.128l-.177-.984-.014.002-.013.003.204.98zM5.927 115.34l-.999-.05-.025.498.384.32.64-.768zm19.54 16.289l-.64.768.338.283.437-.06-.135-.991zm122.213-16.751l.135.991.888-.122-.024-.895-.999.026zm-2.431-91.296l-1 .02.001.007.999-.027zM131.337 2.587l.797-.604-.032-.042-.036-.038-.729.684zm-1.628-1.173l-.298.955.298-.955zm-2.005.04l.177.983.017-.003.017-.004-.211-.977zM12.688 22.127l-.204-.979h-.002l-.006.002a22.557 22.557 0 01-.092.02 22.964 22.964 0 00-1.023.247 8.183 8.183 0 00-.839.267 2.41 2.41 0 00-.417.208 1.306 1.306 0 00-.28.243c-.097.113-.27.361-.263.721l2-.038a.923.923 0 01-.217.617.718.718 0 01-.147.132c-.026.017-.016.007.063-.024a6.32 6.32 0 01.623-.196 18.701 18.701 0 01.924-.223l.063-.014.016-.003h.003l-.202-.98zm-3.126.73c-.001-.037-.002.002-.012.221l-.039.793-.146 2.968-.524 10.514a172921.985 172921.985 0 01-3.188 63.52l-.525 10.452a92932.6 92932.6 0 00-.196 3.897l-.003.05v.016l.998.051.999.049a.1.1 0 010-.003v-.013l.003-.05a249.52 249.52 0 00.049-.969 40989.127 40989.127 0 00.673-13.38 477804.984 477804.984 0 003.187-63.52 27856.423 27856.423 0 00.71-14.28c.006-.145.014-.303.013-.355l-2 .038zm-4.275 93.25l19.54 16.289 1.28-1.536-19.54-16.289-1.28 1.536zm20.315 16.512l122.213-16.751-.271-1.982-122.213 16.751.271 1.982zm123.077-17.768l-2.43-91.296-1.999.053 2.43 91.296 1.999-.053zm-3.43-91.27l1-.019v-.032l-.001-.002v-.05l-.001-.002v-.051l-.001-.002v-.049l-.001-.002v-.049l-.001-.003v-.05l-.001-.003v-.047l-.001-.003v-.05l-.001-.004v-.048l-.001-.004v-.047l-.001-.004v-.049l-.001-.004v-.045l-.001-.004v-.047l-.001-.005v-.048l-.001-.004v-.05l-.001-.005v-.045l-.001-.005v-.047l-.001-.004v-.048l-.001-.004v-.048l-.001-.005v-.044l-.001-.004v-.049l-.001-.005v-.049l-.001-.005v-.045l-.001-.005v-.045l-.001-.005v-.05l-.001-.005v-.045l-.001-.005v-.05l-.001-.005v-.045l-.001-.005v-.045l-.001-.005v-.05l-.001-.005v-.045l-.001-.005v-.049l-.001-.005v-.044l-.001-.005v-.049l-.001-.004v-.044l-.001-.005v-.047l-.001-.005v-.024l-2 .04v.004a.008.008 0 01.001.005v.042l.001.005v.048l.001.005v.048l.001.005v.049l.001.005v.044l.001.005v.05a.009.009 0 01.001.005v.045l.001.005v.045l.001.005v.049l.001.005v.045l.001.005v.045l.001.005v.051a.01.01 0 01.001.005v.045l.001.005v.049l.001.005v.045l.001.005v.049l.001.005v.043l.001.005v.048l.001.005v.048l.001.004v.048l.001.005v.045l.001.005v.049l.001.005v.044l.001.005v.047l.001.005v.05l.001.004v.046l.001.004v.046l.001.004v.05l.001.004v.047l.001.004v.048l.001.003v.05l.001.003v.049l.001.003v.05l.001.003v.048l.001.002v.05l.001.002v.05h.001v.001l.999-.019zm.964-1.89a1.156 1.156 0 00-.061-.344 1.674 1.674 0 00-.071-.18 3.82 3.82 0 00-.159-.302 15.14 15.14 0 00-.474-.757 85.27 85.27 0 00-1.595-2.304 450.943 450.943 0 00-4.78-6.552 1222.28 1222.28 0 00-6.342-8.48l-.441-.583a33.07 33.07 0 01-.146-.193l-.007-.01-.002-.003h-.001l-.797.603-.798.603h.001l.002.003.007.01.03.04.115.152.44.583a1226.787 1226.787 0 016.332 8.465 454.109 454.109 0 014.758 6.52 82.594 82.594 0 011.553 2.246c.187.283.323.5.411.653.044.077.067.122.075.14.004.01-.002-.002-.01-.029-.004-.012-.037-.107-.04-.243l2-.038zM131.337 2.587l.729-.684-.001-.001-.001-.002a.028.028 0 01-.003-.003l-.011-.012-.037-.038a8.126 8.126 0 00-.566-.524c-.328-.276-.863-.683-1.44-.863l-.596 1.909c.171.053.45.233.748.484a6.134 6.134 0 01.423.391l.022.023.004.004h-.001l.73-.684zM130.007.46c-.576-.18-1.248-.15-1.676-.11a8.297 8.297 0 00-.763.11l-.052.01a2.312 2.312 0 01-.015.004l-.005.001h-.003l.211.978.211.978h-.001l.006-.001.031-.007.127-.023c.113-.019.269-.042.443-.058.389-.037.719-.026.89.027l.596-1.91zm-2.48.009L12.511 21.144l.354 1.968L127.88 2.437 127.527.47z" fill="#0278E6"/><path d="M4.969 115.051a1 1 0 101.914.577l-1.914-.577zm1.214-.251l.772.636-.772-.636zm.66-.414l-.153-.988-.105.016-.1.038.359.934zm121.871-18.935l-.079-.997-.037.003-.037.006.153.988zm1.741.1l-.294.956.294-.956zm1.219.779l.757-.653-.041-.048-.047-.042-.669.743zm15.248 19.201a1 1 0 101.514-1.306l-1.514 1.306zM5.926 115.34l.957.289v-.001a1.897 1.897 0 01.042-.114c.04-.097.058-.112.03-.078l-1.544-1.272a2.344 2.344 0 00-.339.597 3.502 3.502 0 00-.094.258l-.006.02-.002.007v.003l-.001.001v.001l.957.289zm1.029.096c-.03.037-.044.04-.013.019a1.38 1.38 0 01.226-.121l.032-.014.006-.002h-.001l-.001.001h-.002l-.358-.933-.358-.934h-.001l-.002.001-.003.001-.009.004-.025.01-.079.033c-.063.028-.15.068-.246.119-.158.083-.478.262-.71.544l1.544 1.272zm.042-.062l121.871-18.935-.307-1.976-121.87 18.935.306 1.976zm121.717-19.923l.08.997h-.001.007l.029-.003a6.713 6.713 0 01.52-.015c.35 0 .656.029.812.077l.588-1.912c-.462-.142-1.026-.164-1.392-.165a10.035 10.035 0 00-.716.023h-.006l.079.998zm1.447 1.056c.099.03.29.138.514.302.098.072.184.14.244.191l.068.058.016.013.002.003-.001-.001.67-.743.669-.743h-.001l-.001-.002-.003-.003a7.172 7.172 0 00-.481-.387c-.251-.183-.669-.465-1.108-.6l-.588 1.912zm.755.476l16.006 18.548 1.514-1.306-16.005-18.548-1.515 1.306z" fill="#0278E6"/><path stroke="#0278E6" stroke-width="2" stroke-linecap="round" d="M136.029 75.547l6.818 7.215M84.502 32.217C98.083 45.66 96.352 69.819 80.136 86.2c-16.215 16.381-40.355 18.36-53.936 4.916-13.582-13.443-11.85-37.602 4.365-53.984 16.216-16.382 40.356-18.36 53.937-4.916z"/><path d="M61.939 54.208c3.194 3.162 2.902 9.025-1.15 13.118-4.053 4.094-9.912 4.446-13.106 1.285-3.194-3.162-2.902-9.025 1.15-13.118 4.052-4.094 9.912-4.446 13.106-1.285z" stroke="#0278E6" stroke-width="2" stroke-linecap="round"/><path d="M64.64 51.745c4.342 4.298 3.89 12.182-1.505 17.634-5.397 5.451-13.276 5.983-17.618 1.686-4.342-4.298-3.89-12.183 1.506-17.634 5.396-5.452 13.275-5.984 17.617-1.686z" stroke="#0278E6" stroke-width="2" stroke-linecap="round"/><path d="M67.965 48.386c5.91 5.85 5.242 16.497-1.991 23.804-7.233 7.307-17.873 8.085-23.783 2.234-5.91-5.85-5.242-16.497 1.991-23.804 7.233-7.307 17.873-8.085 23.783-2.234z" stroke="#0278E6" stroke-width="2" stroke-linecap="round"/><path d="M71.181 45.136c7.428 7.352 6.549 20.671-2.46 29.773-9.01 9.101-22.319 10.116-29.746 2.764-7.428-7.351-6.549-20.67 2.46-29.772 9.01-9.102 22.32-10.117 29.746-2.765z" stroke="#0278E6" stroke-width="2" stroke-linecap="round"/><path d="M74.435 41.85c8.961 8.87 7.87 24.892-2.936 35.808C60.694 88.574 44.685 89.83 35.723 80.96c-8.961-8.87-7.87-24.891 2.936-35.808 10.805-10.916 26.815-12.171 35.776-3.3z" stroke="#0278E6" stroke-width="2" stroke-linecap="round"/><path d="M77.576 38.676c10.443 10.337 9.146 28.968-3.395 41.638-12.54 12.669-31.157 14.156-41.6 3.819-10.444-10.337-9.147-28.969 3.393-41.638 12.541-12.67 31.158-14.157 41.602-3.82z" stroke="#0278E6" stroke-width="2" stroke-linecap="round"/><path d="M80.881 35.337c12.002 11.88 10.49 33.258-3.877 47.77-14.366 14.514-35.726 16.245-47.728 4.365-12.003-11.88-10.49-33.257 3.876-47.77 14.366-14.514 35.727-16.245 47.729-4.365zM55.416 72.501l-.726 26.903m-4.042-27.057L38.647 98.593m21.37-28.035L70.379 93.66m-6.604-27.091l20.106 14.97M44.508 66.842L19.013 79.328m27.924-8.702L26.822 91.532m109.053-24.028l6.791 6.969m-77.08-12.578l25.931 4.222m-47.821-3.286l-26.053 1.745m117.922-13.137l6.762 6.724m-6.607 1.297l6.763 6.724m-76.878-9.235l27.34-7.022m-29.227 3.395l23.963-16.991M60.75 50.969l16.047-24.077m-24.72 23.76l-4.936-24.684m.739 27.825l-15.42-18.47m12.386 22.941l-22.692-9.457m84.185-12.399l16.564-2.627m-16.847-4.285l16.564-2.627M56.526 50.153l6.466-26.81m79.235 23.835l-7.793-8.81-.475-24.598 7.821 10.28.447 23.128zM129.653 2.285l1.519 92.121" stroke="#0278E6" stroke-width="2" stroke-linecap="round"/></svg>